# xmcd
#
# Track frame offsets:
#  183
#  5765
#  27150
#
# Disc length: 553 seconds
#
# Revision: 0
# Processed by: cddbd v1.5.1PL2 Copyright (c) Steve Scherf et al.
# Submitted via: Collectorz.com_Music_Collector 6.9
#
DISCID=1a022703
DTITLE=the Steve Miller Band - Fly Like an Eagle
DYEAR=1900
DGENRE=
TTITLE0=Space Intro
TTITLE1=Fly Like an Eagle
TTITLE2=Winter Time
EXTD=
EXTT0=
EXTT1=
EXTT2=
PLAYORDER=
